<svg width="69" height="18" viewBox="0 0 69 18" fill="none" xmlns="http://www.w3.org/2000/svg">
<path d="M15.1694 5.99691C15.6668 5.98663 16.1117 6.07398 16.5043 6.25897L16.3342 7.38431L16.1771 7.44598C15.7845 7.14794 15.4268 6.99892 15.104 6.99892C14.947 6.99892 14.8205 7.05031 14.7245 7.15308C14.6372 7.24557 14.5936 7.36376 14.5936 7.50764C14.5936 7.65152 14.6547 7.77484 14.7768 7.87762C14.899 7.98039 15.0909 8.09343 15.3527 8.21676C15.6144 8.34009 15.8282 8.46341 15.9939 8.58674C16.1684 8.69978 16.3167 8.85908 16.4389 9.06462C16.561 9.25989 16.6221 9.51168 16.6221 9.81999C16.6221 10.1283 16.5567 10.4161 16.4258 10.6833C16.1204 11.2793 15.5751 11.5774 14.7899 11.5774C14.3188 11.5774 13.8302 11.4592 13.3242 11.2228L13.4812 10.0204L13.599 9.9279C13.7997 10.1334 14.0265 10.2979 14.2795 10.4212C14.5326 10.5342 14.7507 10.5908 14.9339 10.5908C15.1171 10.5908 15.2567 10.5394 15.3527 10.4366C15.4486 10.3338 15.4966 10.2105 15.4966 10.0666C15.4966 9.91248 15.4356 9.78402 15.3134 9.68125C15.1913 9.5682 14.9993 9.45002 14.7376 9.32669C14.4758 9.19309 14.2621 9.06976 14.0963 8.95671C13.6775 8.67923 13.4681 8.27328 13.4681 7.73887C13.4681 7.20446 13.6252 6.7831 13.9393 6.47479C14.2621 6.1562 14.6721 5.99691 15.1694 5.99691Z" fill="#4E24E1"/>
<path d="M23.0132 8.10885C23.0219 7.54361 22.8169 7.26099 22.3981 7.26099C22.1014 7.26099 21.7917 7.41515 21.4689 7.72346L21.4558 9.09545L21.4951 11.4541H20.1995L20.278 8.10885C20.278 7.54361 20.0686 7.26099 19.6498 7.26099C19.3532 7.26099 19.0391 7.41515 18.7076 7.72346V9.09545L18.773 11.4541H17.4774L17.5428 9.23419L17.4905 6.18189L18.7206 6.05857V6.84477H18.7861C19.1612 6.45424 19.5538 6.17675 19.9639 6.01232C20.7055 6.01232 21.1766 6.30008 21.3773 6.8756H21.4166C21.8004 6.46451 22.2279 6.17675 22.6991 6.01232C23.1964 6.01232 23.5715 6.14592 23.8246 6.41313C24.0863 6.68033 24.2128 7.06059 24.2041 7.55389L24.1779 9.09545L24.2302 11.4541H22.9346L23.0132 8.10885Z" fill="#4E24E1"/>
<path d="M27.0292 5.98149C27.6138 5.98149 28.05 6.11509 28.3379 6.3823C28.6258 6.6495 28.7698 7.01948 28.7698 7.49222C28.7698 7.62583 28.748 8.0626 28.7043 8.80256C28.7043 8.80256 28.6913 9.22392 28.6651 10.0666C28.6651 10.2002 28.6782 10.2927 28.7043 10.3441C28.7305 10.3852 28.7829 10.4058 28.8614 10.4058C28.9399 10.4058 29.0315 10.3904 29.1362 10.3595L29.2409 10.452L29.11 11.2536C28.9007 11.4078 28.6651 11.5054 28.4033 11.5465C27.9846 11.5054 27.7316 11.2228 27.6443 10.6987H27.5789C27.2473 11.1098 26.9114 11.3975 26.5712 11.562C26.1 11.5517 25.7292 11.4027 25.4588 11.1149C25.1883 10.8271 25.0531 10.4418 25.0531 9.95873C25.0531 9.2085 25.389 8.75631 26.0608 8.60215L27.5658 8.27842V7.80054C27.5658 7.29696 27.3651 7.04517 26.9638 7.04517C26.5625 7.04517 26.0913 7.26613 25.5504 7.70804L25.4457 7.64638L25.3017 6.62895C25.8776 6.19731 26.4534 5.98149 27.0292 5.98149ZM26.5188 9.31127C26.3182 9.36266 26.2178 9.50654 26.2178 9.74291C26.2178 10.2054 26.388 10.4366 26.7282 10.4366C26.9812 10.4366 27.2517 10.2568 27.5396 9.89707L27.5658 9.03379L26.5188 9.31127Z" fill="#4E24E1"/>
<path d="M32.5709 6.07398C32.632 6.08426 32.7149 6.09454 32.8196 6.10481V7.50764L32.6887 7.5693C32.5753 7.51792 32.4531 7.49222 32.3223 7.49222C31.9471 7.49222 31.6025 7.77484 31.2884 8.34009V9.09545L31.3669 11.4541H30.0582L30.1237 9.23419L30.0713 6.18189L31.3146 6.05857L31.3015 7.12225H31.38C31.6941 6.43368 32.0911 6.08426 32.5709 6.07398Z" fill="#4E24E1"/>
<path d="M35.321 10.3133C35.5217 10.3133 35.7354 10.2516 35.9623 10.1283L36.067 10.2516L35.9361 11.1457C35.6133 11.3513 35.2774 11.4746 34.9284 11.5157C34.0472 11.4129 33.6023 10.9094 33.5936 10.005L33.6459 9.03379V7.04517H33.0308L32.9785 6.98351L33.0439 6.13564H33.6197V5.24154L34.8106 4.79448L34.9022 4.88697L34.863 6.13564H36.0408L36.0801 6.21272L36.0277 7.04517H34.8499L34.7976 9.635C34.7976 9.88165 34.8325 10.0564 34.9022 10.1591C34.9808 10.2619 35.1204 10.3133 35.321 10.3133Z" fill="#4E24E1"/>
<path d="M40.2394 8.49424C40.7629 9.45001 41.269 10.3133 41.7575 11.0841L41.7314 11.2536C41.3039 11.4386 40.872 11.5465 40.4358 11.5774L40.2918 11.4386C39.8207 10.4829 39.4368 9.65556 39.1401 8.95671H38.1979V9.09545L38.2502 11.4541H36.9154L36.9939 9.23419L36.9154 4.0237L39.3495 4.00828C40.0126 4.00828 40.523 4.19841 40.8807 4.57866C41.2384 4.95892 41.4173 5.5036 41.4173 6.21272C41.4173 6.68547 41.3126 7.12225 41.1032 7.52305C40.8938 7.92386 40.6059 8.24759 40.2394 8.49424ZM40.017 6.36688C40.017 5.58582 39.6505 5.18501 38.9177 5.16446L38.2502 5.2107L38.2241 7.72346L39.1925 7.78512C39.7509 7.55903 40.0257 7.08628 40.017 6.36688Z" fill="#4E24E1"/>
<path d="M44.1911 5.98149C44.7757 5.98149 45.2119 6.11509 45.4998 6.3823C45.7878 6.6495 45.9317 7.01948 45.9317 7.49222C45.9317 7.62583 45.9099 8.0626 45.8663 8.80256C45.8663 8.80256 45.8532 9.22392 45.827 10.0666C45.827 10.2002 45.8401 10.2927 45.8663 10.3441C45.8925 10.3852 45.9448 10.4058 46.0233 10.4058C46.1018 10.4058 46.1934 10.3904 46.2981 10.3595L46.4028 10.452L46.272 11.2536C46.0626 11.4078 45.827 11.5054 45.5653 11.5465C45.1465 11.5054 44.8935 11.2228 44.8062 10.6987H44.7408C44.4093 11.1098 44.0734 11.3975 43.7331 11.562C43.262 11.5517 42.8912 11.4027 42.6207 11.1149C42.3502 10.8271 42.215 10.4418 42.215 9.95873C42.215 9.2085 42.5509 8.75631 43.2227 8.60215L44.7277 8.27842V7.80054C44.7277 7.29696 44.527 7.04517 44.1257 7.04517C43.7244 7.04517 43.2532 7.26613 42.7123 7.70804L42.6076 7.64638L42.4637 6.62895C43.0395 6.19731 43.6153 5.98149 44.1911 5.98149ZM43.6808 9.31127C43.4801 9.36266 43.3798 9.50654 43.3798 9.74291C43.3798 10.2054 43.5499 10.4366 43.8901 10.4366C44.1432 10.4366 44.4136 10.2568 44.7015 9.89707L44.7277 9.03379L43.6808 9.31127Z" fill="#4E24E1"/>
<path d="M47.9138 3.45332C48.1232 3.45332 48.2846 3.52526 48.398 3.66914C48.5114 3.80274 48.5681 3.99801 48.5681 4.25493C48.5681 4.50158 48.507 4.70199 48.3849 4.85615C48.2628 5.0103 48.0926 5.08738 47.8745 5.08738C47.6651 5.08738 47.4993 5.02058 47.3772 4.88697C47.2638 4.7431 47.2071 4.54783 47.2071 4.30118C47.2071 4.05453 47.2725 3.85413 47.4034 3.69997C47.5342 3.53554 47.7044 3.45332 47.9138 3.45332ZM48.5289 11.4541H47.2202L47.2856 9.23419L47.2332 6.18189L48.5419 6.05857L48.4503 9.09545L48.5289 11.4541Z" fill="#4E24E1"/>
<path d="M51.0433 11.4541H49.7477L49.8131 9.21878L49.7607 3.46873L51.0564 3.34541L50.9778 9.09545L51.0433 11.4541Z" fill="#4E24E1"/>
<path d="M53.7188 5.99691C54.2161 5.98663 54.6611 6.07398 55.0537 6.25897L54.8836 7.38431L54.7265 7.44598C54.3339 7.14794 53.9762 6.99892 53.6534 6.99892C53.4964 6.99892 53.3698 7.05031 53.2739 7.15308C53.1866 7.24557 53.143 7.36376 53.143 7.50764C53.143 7.65152 53.2041 7.77484 53.3262 7.87762C53.4484 7.98039 53.6403 8.09343 53.9021 8.21676C54.1638 8.34009 54.3775 8.46341 54.5433 8.58674C54.7178 8.69978 54.8661 8.85908 54.9883 9.06462C55.1104 9.25989 55.1715 9.51168 55.1715 9.81999C55.1715 10.1283 55.106 10.4161 54.9752 10.6833C54.6698 11.2793 54.1245 11.5774 53.3393 11.5774C52.8682 11.5774 52.3796 11.4592 51.8736 11.2228L52.0306 10.0204L52.1484 9.9279C52.3491 10.1334 52.5759 10.2979 52.8289 10.4212C53.0819 10.5342 53.3001 10.5908 53.4833 10.5908C53.6665 10.5908 53.8061 10.5394 53.9021 10.4366C53.998 10.3338 54.046 10.2105 54.046 10.0666C54.046 9.91248 53.9849 9.78402 53.8628 9.68125C53.7406 9.5682 53.5487 9.45002 53.287 9.32669C53.0252 9.19309 52.8115 9.06976 52.6457 8.95671C52.2269 8.67923 52.0175 8.27328 52.0175 7.73887C52.0175 7.20446 52.1746 6.7831 52.4887 6.47479C52.8115 6.1562 53.2215 5.99691 53.7188 5.99691Z" fill="#4E24E1"/>
<path fill-rule="evenodd" clip-rule="evenodd" d="M44.6443 2.08124C43.8773 2.05143 43.0871 2.02071 42.2686 1.97906C41.8662 1.95857 41.5529 1.52724 41.5691 1.01564C41.5852 0.504042 41.9245 0.105915 42.327 0.126399C43.1106 0.16628 43.8782 0.195618 44.6325 0.224449C48.3873 0.367957 51.8134 0.498903 55.2512 1.85515C59.426 3.50216 63.5799 6.92485 68.5342 14.1284L67.436 15.3488C62.6032 8.32174 58.6651 5.14333 54.8189 3.62597C51.5874 2.35113 48.3932 2.22697 44.6443 2.08124Z" fill="#4E24E1"/>
<path fill-rule="evenodd" clip-rule="evenodd" d="M2.33377 14.7153C2.33377 14.2033 2.6603 13.7882 3.06309 13.7882H67.827C68.2298 13.7882 68.5563 14.2033 68.5563 14.7153C68.5563 15.2273 68.2298 15.6424 67.827 15.6424H3.06309C2.6603 15.6424 2.33377 15.2273 2.33377 14.7153Z" fill="#4E24E1"/>
<path fill-rule="evenodd" clip-rule="evenodd" d="M1.45874 16.9163C1.45874 16.7115 1.58935 16.5455 1.75047 16.5455H67.3895C67.5507 16.5455 67.6813 16.7115 67.6813 16.9163C67.6813 17.1211 67.5507 17.2872 67.3895 17.2872H1.75047C1.58935 17.2872 1.45874 17.1211 1.45874 16.9163Z" fill="#4E24E1"/>
<path fill-rule="evenodd" clip-rule="evenodd" d="M0 11.3539C0 11.1491 0.130612 10.983 0.29173 10.983H11.0857C11.2469 10.983 11.3775 11.1491 11.3775 11.3539C11.3775 11.5587 11.2469 11.7247 11.0857 11.7247H0.29173C0.130612 11.7247 0 11.5587 0 11.3539Z" fill="#4E24E1"/>
<path fill-rule="evenodd" clip-rule="evenodd" d="M2.91722 9.12891C2.91722 8.92411 3.04783 8.75808 3.20895 8.75808H10.7939C10.955 8.75808 11.0856 8.92411 11.0856 9.12891C11.0856 9.33371 10.955 9.49974 10.7939 9.49974H3.20895C3.04783 9.49974 2.91722 9.33371 2.91722 9.12891Z" fill="#4E24E1"/>
<path fill-rule="evenodd" clip-rule="evenodd" d="M6.41797 6.90391C6.41797 6.69911 6.54858 6.53308 6.7097 6.53308H10.5022C10.6633 6.53308 10.7939 6.69911 10.7939 6.90391C10.7939 7.10871 10.6633 7.27474 10.5022 7.27474H6.7097C6.54858 7.27474 6.41797 7.10871 6.41797 6.90391Z" fill="#4E24E1"/>
</svg>
