<svg width="53" height="52" viewBox="0 0 53 52" fill="none" xmlns="http://www.w3.org/2000/svg">
<g clip-path="url(#clip0_166_929)">
<path d="M26.5925 4.85522C18.046 4.85522 9.49951 5.92354 9.49951 13.4017V33.6997C9.49951 37.8234 12.854 41.1779 16.9777 41.1779L13.7728 44.3828V45.4511H18.5374L22.8107 41.1779H30.8658L35.139 45.4511H39.4123V44.3828L36.2073 41.1779C40.331 41.1779 43.6855 37.8234 43.6855 33.6997V13.4017C43.6855 5.92354 36.0364 4.85522 26.5925 4.85522ZM16.9777 36.9046C15.2043 36.9046 13.7728 35.4731 13.7728 33.6997C13.7728 31.9263 15.2043 30.4948 16.9777 30.4948C18.7511 30.4948 20.1826 31.9263 20.1826 33.6997C20.1826 35.4731 18.7511 36.9046 16.9777 36.9046ZM24.4559 21.9482H13.7728V13.4017H24.4559V21.9482ZM28.7292 21.9482V13.4017H39.4123V21.9482H28.7292ZM36.2073 36.9046C34.4339 36.9046 33.0024 35.4731 33.0024 33.6997C33.0024 31.9263 34.4339 30.4948 36.2073 30.4948C37.9807 30.4948 39.4123 31.9263 39.4123 33.6997C39.4123 35.4731 37.9807 36.9046 36.2073 36.9046Z" fill="#4E24E1"/>
</g>
<defs>
<clipPath id="clip0_166_929">
<rect width="51.2791" height="51.2791" fill="white" transform="translate(0.953125 0.581909)"/>
</clipPath>
</defs>
</svg>
